# xmcd
# 
# Track frame offsets:
#     150
#     33187
#     59895
#     91262
#     108652
#     133465
#     161092
# 
# Disc length: 2405
# 
# Revision: 2
# Processed by: cddbd v1.5.2PL0 Copyright (c) Steve Scherf et al.
# Submitted via: fre:ac v1.1beta1pre3
# 
DISCID=65096307
DTITLE=Fania All Stars with Celia Cruz - Fania All Stars with Celia Cruz
DYEAR=1997
DGENRE=Salsa
TTITLE0=Bemba Colorá
TTITLE1=Cuando Despiertes
TTITLE2=Isadora
TTITLE3=Cucala
TTITLE4=Bamboleo
TTITLE5=Hueso y Pellejo
TTITLE6=Diosa del Ritmo
EXTD=
EXTT0=
EXTT1=
EXTT2=
EXTT3=
EXTT4=
EXTT5=
EXTT6=
PLAYORDER=
